<svg xmlns="http://www.w3.org/2000/svg" width="512" height="512" viewBox="0 0 512 512">
  <rect x="96" y="0" width="320" height="512" fill="#d926cf"/>
  <g fill="#f0eae0">
    <polygon points="130.4,171.5 205.2,66.8 248.5,128.2 296.4,80.3 381.6,171.5"/>
    <circle cx="348.7" cy="48.9" r="28.4"/>
  </g>
  <rect x="0" y="192" width="512" height="288" fill="#241d15"/>
  <g fill="#f0eae0">
    <path transform="translate(30.06,448.00) scale(0.13836,-0.13836)" d="M84 1619H508Q680 1619 772.5 1592.0Q865 1565 911.5 1514.0Q958 1463 974.5 1390.5Q991 1318 991 1166V1025Q991 870 959.0 799.0Q927 728 841.5 690.0Q756 652 618 652H505V0H84ZM505 1342V930Q523 929 536 929Q594 929 616.5 957.5Q639 986 639 1076V1209Q639 1292 613.0 1317.0Q587 1342 505 1342Z"/>
    <path transform="translate(172.29,448.00) scale(0.13836,-0.13836)" d="M1024 1619V0H655L436 736V0H84V1619H436L672 890V1619Z"/>
    <path transform="translate(325.73,448.00) scale(0.13836,-0.13836)" d="M1050 1023H629V1170Q629 1309 617.0 1344.0Q605 1379 560 1379Q521 1379 507.0 1349.0Q493 1319 493 1195V418Q493 309 507.0 274.5Q521 240 563 240Q609 240 625.5 279.0Q642 318 642 431V623H557V869H1050V0H785L746 116Q703 41 637.5 3.5Q572 -34 483 -34Q377 -34 284.5 17.5Q192 69 144.0 145.0Q96 221 84.0 304.5Q72 388 72 555V1036Q72 1268 97.0 1373.0Q122 1478 240.5 1565.5Q359 1653 547 1653Q732 1653 854.0 1577.0Q976 1501 1013.0 1396.5Q1050 1292 1050 1093Z"/>
  </g>
</svg>
